.
 
http://www.scenetime.com    -  Hottest private tracker on the net. !!!

New release on http://www.scenetime.com

        Seed back for speed


...................................NFO:.................................................[img]http://img52.imageshack.us/img52/2074/l1133985a967417d.jpg[/img]

SAMURAi Presents to you:
African.Cats.2011.DOCU.BRRip.XviD.AC3-SAMURAi


Source: Bluray
Video: 720x304 @bitrate 1130KB @2pass
Audio: English DTS to AC3 5.1 @448
Sample: yes, included  
http://www.imdb.com/title/tt1133985/


General
Complete name                    : Green.Lantern.2011.EXTENDED.BRRip.XviD.AC3-SAMURAi.avi
Format                           : AVI
Format/Info                      : Audio Video Interleave
File size                        : 1.37 GiB
Duration                         : 2h 3mn
Overall bit rate                 : 1 587 Kbps
Writing application              : Nandub v1.0rc2
Writing library                  : Nandub build 1852/release

Video
ID                               : 0
Format                           : MPEG-4 Visual
Format profile                   : Advanced Simple@L5
Format settings, BVOP            : 2
Format settings, QPel            : No
Format settings, GMC             : No warppoints
Format settings, Matrix          : Default (H.263)
Muxing mode                      : Packed bitstream
Codec ID                         : XVID
Codec ID/Hint                    : XviD
Duration                         : 2h 3mn
Bit rate                         : 1 130 Kbps
Width                            : 720 pixels
Height                           : 304 pixels
Display aspect ratio             : 2.35:1
Frame rate                       : 23.976 fps
Color space                      : YUV
Chroma subsampling               : 4:2:0
Bit depth                        : 8 bits
Scan type                        : Progressive
Compression mode                 : Lossy
Bits/(Pixel*Frame)               : 0.215
Stream size                      : 999 MiB (71%)
Writing library                  : XviD 64

Audio
ID                               : 1
Format                           : AC-3
Format/Info                      : Audio Coding 3
Mode extension                   : CM (complete main)
Codec ID                         : 2000
Duration                         : 2h 3mn
Bit rate mode                    : Constant
Bit rate                         : 448 Kbps
Channel(s)                       : 6 channels
Channel positions                : Front: L C R, Side: L R, LFE
Sampling rate                    : 48.0 KHz
Bit depth                        : 16 bits
Compression mode                 : Lossy
Stream size                      : 396 MiB (28%)
Alignment                        : Split accross interleaves
Interleave, duration             : 42 ms (1.00 video frame)
Interleave, preload duration     : 500 ms




Plot
A test pilot is granted a mystical green ring that bestows him with otherworldly powers, 
as well as membership into an intergalactic squadron tasked with keeping peace within 
the universe.



Screenshots
[img]http://img690.imageshack.us/img690/6846/vlcsnap2011100102h29m35.png[/img]
[img]http://img827.imageshack.us/img827/5387/vlcsnap2011100102h30m03.png[/img]
[img]http://img163.imageshack.us/img163/4775/vlcsnap2011100102h30m27.png[/img]
[img]http://img855.imageshack.us/img855/5057/vlcsnap2011100102h30m40.png[/img]

Greetz:
Cm8, Santi, Rx, Noir, Ember, NPW, Unknown, VIP3R, SiC, Flojo, and other
p2p groups come and past!